<?xml version="1.0" encoding="UTF-8"?>
<svg xmlns="http://www.w3.org/2000/svg" version="1.1" xmlns:xlink="http://www.w3.org/1999/xlink" viewBox="0 0 595.3 841.9">
  <!-- Generator: Adobe Illustrator 29.2.1, SVG Export Plug-In . SVG Version: 2.1.0 Build 116)  -->
  <defs>
    <style>
      .st0 {
        fill: none;
        stroke: #1d1d1b;
        stroke-miterlimit: 10;
        stroke-width: 4px;
      }

      .st1 {
        display: none;
      }
    </style>
  </defs>
  <g id="Camada_1" class="st1">
    <image width="58" height="92" transform="translate(97.1 536) scale(5.4 -5)" xlink:href="shuttle-1.png"/>
  </g>
  <g id="Camada_2">
    <g>
      <path class="st0" d="M297.6,93c14.7-.2,36.4,156.1,36.4,156.1l5.5,3.2v24.7l71.1,73.1c-12.1,10.4-68.8,26.2-77.3,25.3l-32.6,22.2-36-22.4-80.3-17.9,75.8-79,.9-24.5,6.9-4.7s14.7-155.9,29.4-156.1Z"/>
      <path class="st0" d="M275.7,378.6v-177.3l3.5-29.1s8.5-21.1,20-21.7,22,21.1,22,21.1l2.5,32.9v174.2h-47.9Z"/>
      <rect class="st0" x="297.7" y="150.4" width="4" height="258.2"/>
      <rect class="st0" x="279.2" y="172.1" width="42.2" height="2.4"/>
      <rect class="st0" x="275.7" y="233.5" width="47.9" height="2.6"/>
      <rect class="st0" x="275.7" y="315.9" width="45.7" height="2.6"/>
      <rect class="st0" x="275.7" y="348.5" width="45.7" height="3.2"/>
      <rect class="st0" x="281.5" y="378.6" width="37.1" height="12.1"/>
    </g>
  </g>
</svg>